PathFileType	4	(X/Y/Z)	Run_400 02
DataRate	CameraRate	NumFrames	NumMarkers	Units	OrigDataRate	OrigDataStartFrame	OrigNumFrames
100	100	6	42	mm	100	198	128
Frame#	Time	RASI			LPSI			RPSI			RTH1			RTH2			RTH3			LTH1			LTH2			LTH3			RTB1			RTB2			RTB3			LTB1			LTB2			LTB3			RCAL			RTOE			RMT5			LCAL			LTOE			LMT5			LACR			RACR			CLAV			C7			RUA1			RUA2			RUA3			RLEL			RMEL			LUA2			LUA3			LLEL			LMEL			RFAsuperior			RFAradius			RFAulna			LFAsuperior			LFAradius			LFAulna			LUA1			LASI			
		X1	Y1	Z1	X2	Y2	Z2	X3	Y3	Z3	X4	Y4	Z4	X5	Y5	Z5	X6	Y6	Z6	X7	Y7	Z7	X8	Y8	Z8	X9	Y9	Z9	X10	Y10	Z10	X11	Y11	Z11	X12	Y12	Z12	X13	Y13	Z13	X14	Y14	Z14	X15	Y15	Z15	X16	Y16	Z16	X17	Y17	Z17	X18	Y18	Z18	X19	Y19	Z19	X20	Y20	Z20	X21	Y21	Z21	X22	Y22	Z22	X23	Y23	Z23	X24	Y24	Z24	X25	Y25	Z25	X26	Y26	Z26	X27	Y27	Z27	X28	Y28	Z28	X29	Y29	Z29	X30	Y30	Z30	X31	Y31	Z31	X32	Y32	Z32	X33	Y33	Z33	X34	Y34	Z34	X35	Y35	Z35	X36	Y36	Z36	X37	Y37	Z37	X38	Y38	Z38	X39	Y39	Z39	X40	Y40	Z40	X41	Y41	Z41	X42	Y42	Z42	

183	2.47	1207.400099	956.950877	-193.021932	1040.036604	1027.298742	-368.267191	1037.117581	1017.09177	-275.909551	1148.40925	776.818154	-156.332492	1169.790855	674.931703	-165.051961	1092.026099	545.997706	-174.066924	1155.848211	844.789701	-519.404151	1265.172652	745.484992	-504.792928	1243.56606	613.2057579999999	-482.834379	943.213712	413.884669	-241.933965	847.9642239999999	476.552446	-198.545803	772.519826	461.135346	-259.914395	1313.131912	345.543332	-387.363379	1270.282037	287.248628	-426.299327	1271.03556	214.784719	-360.040897	701.6880159999999	593.6577600000001	-262.392357	630.696321	368.387395	-271.165779	602.1980600000001	394.959157	-200.491849	1126.083553	103.109066	-334.232137	1405.587404	51.429458	-313.306445	1350.93475	57.655802	-398.904466	1211.866019	1485.011437	-508.000445	1255.280151	1472.308841	-168.073634	1288.137383	1412.988176	-315.185857	1175.948393	1512.705669	-332.650401	1199.284686	1347.355971	-81.352419	1130.655337	1347.160291	-65.690061	1141.506566	1273.829926	-50.769855	1104.53123	1206.61771	-22.557545	1046.21752	1209.932617	-96.974918	1034.564618	1368.516728	-552.933393	1039.361416	1300.057397	-606.117191	997.799693	1245.891254	-625.466158	981.166014	1225.358097	-536.231985	1183.126327	1175.936331	-57.209383	1301.737406	1127.072293	-170.125919	1280.13753	1067.579831	-135.820621	1074.911824	1205.505151	-630.776685	1242.228363	1172.864272	-568.293285	1221.156801	1109.187217	-593.3346759999999	1118.937571	1397.494351	-581.088965	1212.888954	976.590092	-448.715847	
184	2.48	1200.5288	951.837992	-191.207636	1035.726093	1023.252544	-366.632031	1032.743238	1012.270206	-274.328973	1148.683237	773.051949	-154.923506	1178.329926	672.427013	-162.528528	1109.619908	540.828338	-172.025751	1150.98788	842.5328909999999	-518.658572	1256.740608	740.097972	-506.473766	1233.409745	607.440394	-481.495051	968.007898	410.344592	-242.132873	873.568155	472.678587	-197.287103	798.259022	458.891386	-258.87409	1291.337762	338.737516	-385.501739	1245.485359	283.001987	-425.588905	1239.920193	210.407892	-359.428199	724.428483	592.135493	-259.751874	659.0547309999999	365.177605	-268.657558	633.866413	389.737763	-196.363334	1087.717647	104.283014	-333.899333	1358.587001	50.890475	-312.63864	1304.017975	56.426842	-398.427159	1215.65164	1477.808405	-509.511035	1250.748157	1466.198008	-166.569553	1286.39608	1407.033053	-313.183205	1176.171883	1510.263396	-334.058219	1189.675767	1340.366024	-83.135451	1119.751431	1340.980737	-69.836823	1128.810425	1267.642136	-55.722035	1089.917428	1201.134916	-28.262799	1037.102002	1203.826555	-105.743514	1043.390979	1352.021144	-561.9386479999999	1053.979524	1282.218825	-611.201551	1016.318867	1227.724543	-633.337716	994.3843010000001	1205.625834	-546.701962	1169.673282	1167.366835	-60.364669	1290.301652	1107.842772	-163.679009	1264.231756	1051.219768	-127.188191	1094.031607	1189.227323	-634.774017	1257.644545	1159.367642	-567.1921129999999	1238.722627	1095.263401	-594.333059	1130.349734	1382.784015	-584.494275	1209.239524	973.785047	-449.345395	
185	2.49	1194.070697	948.633642	-188.97565	1032.326058	1021.303743	-366.267782	1027.811372	1009.647668	-273.849834	1148.426095	770.575161	-153.512029	1187.643019	671.716917	-160.168484	1128.878849	538.398522	-170.040913	1147.413529	838.547656	-517.949643	1246.562027	732.440337	-506.109191	1219.449963	600.333765	-479.479445	994.099892	407.521757	-242.526341	899.938049	468.379173	-196.188723	824.624402	455.157851	-257.776163	1266.32159	329.936773	-384.353446	1217.361163	276.72972	-424.446866	1207.03614	204.716732	-359.108115	745.437401	587.799114	-256.124039	689.601894	358.469875	-267.818149	666.988291	379.947292	-193.794934	1049.485515	105.380475	-333.631282	1314.854717	50.628125	-312.108883	1260.380279	55.474159	-398.084396	1219.993465	1472.543036	-509.685321	1245.207463	1461.888498	-165.481688	1283.914061	1402.831197	-311.134251	1175.557302	1507.859165	-334.839567	1179.476409	1336.125598	-84.70585	1108.55482	1337.674149	-74.31442300000001	1115.578458	1264.847473	-59.76116	1074.871504	1198.646947	-33.586936	1027.532189	1200.449131	-114.108482	1053.66317	1339.202702	-567.612677	1069.404436	1269.221295	-614.874253	1036.544784	1213.399988	-639.01256	1008.360759	1189.374237	-555.275396	1155.681478	1162.415193	-63.028661	1277.652853	1093.497754	-157.164657	1247.131548	1039.489466	-119.391823	1115.586727	1177.228469	-636.472247	1274.142907	1148.701261	-564.48956	1257.223402	1084.427436	-594.285572	1141.992555	1372.544326	-586.634159	1206.642048	971.72289	-448.719154	
186	2.5	1188.376724	947.369982	-186.73439	1029.666985	1021.239239	-367.020284	1022.581414	1009.029693	-274.415062	1148.390159	769.618776	-152.188182	1197.392806	673.36118	-158.233984	1149.176019	538.601122	-168.656678	1143.984269	834.40982	-517.628794	1236.456283	723.528793	-504.558474	1203.739598	593.796197	-477.805294	1021.115669	406.048623	-243.012664	926.413985	463.884268	-195.477809	850.955921	450.178692	-256.829695	1239.504346	321.811454	-383.737987	1188.228836	270.928432	-423.452957	1173.60863	200.210174	-358.776734	764.851795	580.429316	-252.423723	721.700468	348.618048	-267.592533	700.40531	366.944206	-192.260809	1011.503511	106.979717	-333.715947	1276.36516	51.215315	-311.469943	1221.995471	55.37054	-397.725351	1225.057347	1469.400021	-509.107014	1238.435332	1459.590673	-164.554025	1281.290407	1400.403676	-309.081518	1173.933423	1505.154502	-335.568604	1168.064053	1334.839518	-85.670078	1096.436517	1337.446284	-78.706135	1101.29143	1265.30638	-62.893565	1058.873554	1199.61342	-37.997631	1016.040303	1200.505953	-120.870944	1064.327021	1330.218305	-569.823939	1084.471379	1261.042027	-617.064725	1056.265976	1203.629616	-642.216722	1022.360622	1177.922269	-560.601399	1140.102706	1160.369979	-63.795324	1263.896028	1085.508633	-150.68921	1229.452609	1033.275974	-113.115554	1137.193923	1169.803952	-636.243345	1290.914843	1142.388713	-560.2817230000001	1276.043536	1078.149046	-592.417457	1152.46594	1366.71497	-587.5870169999999	1204.468202	970.491937	-446.794394	
187	2.51	1183.588442	948.023176	-184.923322	1027.631554	1022.416361	-368.254315	1018.128975	1009.978659	-275.642316	1149.295229	770.660177	-150.779838	1207.348698	677.917495	-156.904288	1169.63275	541.843136	-168.179263	1139.548153	831.869334	-517.4190589999999	1227.274835	715.638475	-502.763473	1187.879077	589.095252	-477.112815	1048.854568	406.41695	-243.562111	952.480461	459.37503	-195.350391	876.91918	444.005018	-256.352073	1211.421244	315.871595	-383.36885	1158.87114	267.000108	-423.0199	1139.909499	197.858643	-358.452967	782.898636	569.930958	-249.621262	754.984374	336.015264	-267.22208	733.899942	351.728922	-191.210307	973.629652	109.333588	-334.173368	1239.65564	52.160699	-310.751969	1185.37746	55.626064	-397.384953	1230.852161	1468.415515	-508.191593	1230.598558	1459.396197	-163.676468	1278.94209	1399.748466	-306.850206	1171.793731	1503.245862	-336.676778	1155.156602	1336.675468	-85.927576	1083.101682	1340.281282	-82.961198	1085.838344	1268.82379	-65.34031299999999	1041.674271	1203.970118	-41.417653	1002.346645	1204.10931	-125.738892	1074.594356	1324.68682	-570.032762	1098.312946	1256.654412	-617.841371	1073.44232	1198.073426	-643.300225	1036.153936	1171.439058	-562.327446	1122.552197	1161.213181	-62.534995	1249.250541	1084.505901	-144.571127	1211.911088	1033.073323	-108.52521	1156.130116	1166.330179	-634.7199900000001	1306.7892	1141.384849	-554.740621	1294.390237	1077.256751	-588.2888799999999	1161.655818	1364.264518	-587.676212	1202.406173	970.142663	-444.519447	
188	2.52	1179.788369	950.434186	-183.861114	1026.109728	1024.390113	-369.362749	1015.385159	1012.168785	-277.064148	1151.401487	774.055481	-149.168983	1217.285244	685.650891	-156.035999	1189.343009	548.581288	-168.487051	1133.854059	831.375899	-516.7935230000001	1218.351778	710.67544	-501.000575	1172.044377	586.3138719999999	-477.248287	1076.946663	408.544716	-244.196098	977.8224310000001	455.072398	-195.852252	902.545965	436.5051	-256.414789	1181.788959	311.924	-383.017491	1128.456654	264.86762	-423.051947	1105.437027	197.039883	-358.319819	799.770404	556.36718	-248.491064	789.51445	321.086185	-266.368241	768.113842	334.935496	-190.17826	935.564732	112.434608	-334.898319	1201.240105	52.950813	-310.283036	1147.018786	55.728282	-397.188394	1237.12968	1469.564601	-506.950002	1222.106902	1461.296575	-162.944613	1276.831604	1400.858788	-304.189885	1169.903609	1503.448106	-338.093035	1141.07529	1341.64552	-85.75676199999999	1068.957407	1346.08191	-87.39180500000001	1069.707467	1275.269213	-67.435175	1023.695809	1211.325655	-44.266943	987.588342	1210.917666	-129.609381	1084.304522	1322.298415	-570.064045	1110.610142	1255.088541	-617.515725	1087.491908	1195.801424	-642.996951	1049.856365	1169.125599	-561.416679	1103.916002	1165.975948	-60.59356	1234.12048	1089.915937	-139.204785	1195.081469	1038.664675	-105.204169	1171.309981	1166.04357	-632.4128940000001	1320.864365	1145.783796	-548.058462	1311.664934	1081.708894	-582.081611	1170.459414	1364.184264	-587.190748	1200.451729	970.535394	-443.13609	
